<?xml version="1.0" standalone="no"?>
<!DOCTYPE svg PUBLIC "-//W3C//DTD SVG 20010904//EN"
 "http://www.w3.org/TR/2001/REC-SVG-20010904/DTD/svg10.dtd">
<svg version="1.0" xmlns="http://www.w3.org/2000/svg"
 width="3000.000000pt" height="3000.000000pt" viewBox="0 0 3000.000000 3000.000000"
 preserveAspectRatio="xMidYMid meet">
<metadata>
Created by potrace 1.14, written by Peter Selinger 2001-2017
</metadata>
<g transform="translate(0.000000,3000.000000) scale(0.100000,-0.100000)"
fill="#000000" stroke="none">
<path d="M15887 22013 c-1 -1 -61 -5 -132 -8 -72 -4 -146 -8 -165 -10 -19 -2
-71 -6 -115 -10 -44 -3 -96 -8 -115 -10 -19 -3 -57 -7 -85 -10 -93 -11 -130
-16 -260 -35 -71 -11 -155 -24 -185 -30 -30 -6 -71 -13 -90 -16 -32 -5 -79
-15 -150 -30 -14 -3 -34 -7 -45 -9 -11 -2 -60 -13 -110 -25 -49 -12 -97 -23
-105 -25 -307 -67 -900 -268 -1228 -416 -24 -11 -62 -27 -85 -36 -43 -17 -471
-230 -517 -257 -14 -8 -81 -47 -150 -87 -69 -39 -138 -79 -155 -89 -285 -165
-752 -505 -1050 -765 -198 -172 -496 -463 -636 -619 -24 -27 -57 -63 -73 -80
-162 -173 -457 -556 -642 -831 -274 -409 -498 -821 -687 -1265 -65 -153 -161
-396 -173 -440 -2 -8 -24 -76 -50 -150 -47 -141 -151 -493 -159 -545 -3 -16
-10 -43 -15 -60 -5 -16 -11 -41 -14 -55 -2 -14 -11 -55 -20 -93 -9 -37 -18
-82 -21 -100 -3 -17 -8 -39 -10 -47 -2 -8 -7 -31 -10 -50 -3 -19 -8 -42 -10
-50 -3 -8 -7 -31 -9 -50 -3 -19 -9 -57 -15 -85 -5 -27 -13 -77 -16 -110 -4
-33 -9 -62 -10 -65 -2 -3 -6 -34 -10 -70 -4 -36 -8 -72 -10 -80 -2 -8 -6 -44
-9 -80 -4 -36 -9 -76 -11 -90 -2 -14 -7 -65 -10 -115 -4 -49 -8 -106 -10 -125
-27 -247 -22 -918 9 -1212 3 -32 8 -84 11 -115 3 -32 7 -74 10 -93 2 -19 7
-57 10 -85 3 -27 8 -61 10 -75 2 -14 6 -47 10 -74 3 -27 15 -101 26 -165 11
-64 22 -129 25 -146 6 -41 47 -234 70 -330 4 -16 9 -37 10 -45 25 -120 119
-444 189 -655 l54 -160 -61 -115 c-33 -63 -100 -191 -148 -285 -48 -93 -110
-213 -137 -265 -28 -52 -90 -171 -138 -265 -48 -93 -111 -215 -140 -270 -74
-142 -168 -323 -270 -520 -48 -93 -113 -219 -145 -280 -87 -166 -172 -330
-278 -535 -52 -102 -105 -198 -117 -215 -12 -16 -59 -100 -104 -187 l-81 -156
70 0 c39 0 70 4 70 9 0 5 764 9 1773 9 l1772 0 30 -28 c36 -33 224 -193 280
-239 22 -17 65 -52 96 -76 191 -154 539 -395 774 -537 231 -140 558 -314 745
-398 25 -11 77 -34 115 -52 39 -17 131 -56 205 -86 74 -30 144 -59 155 -64 37
-17 329 -118 460 -159 208 -64 598 -166 710 -185 17 -2 66 -12 110 -21 130
-27 254 -48 352 -60 13 -2 40 -6 60 -9 51 -8 106 -14 176 -21 32 -4 66 -8 75
-10 9 -1 55 -6 102 -10 47 -3 101 -8 120 -10 216 -24 970 -24 1165 0 17 2 68
6 115 9 46 4 98 9 115 11 16 2 57 7 90 10 33 3 89 10 125 16 36 5 83 11 105
14 22 3 49 7 60 9 11 2 38 6 60 10 23 3 52 8 65 11 14 3 52 10 85 15 33 6 103
20 155 31 52 12 109 23 125 26 47 7 356 88 495 128 127 37 409 132 535 180 39
15 93 35 120 45 28 10 64 26 80 34 17 9 34 16 38 16 17 0 338 148 502 231 176
88 388 206 565 313 330 201 774 529 1051 777 39 35 79 69 88 75 12 8 167 12
562 12 301 -1 551 2 557 6 7 4 10 217 10 634 l0 627 104 155 c256 383 499 833
673 1245 37 88 73 174 80 190 48 111 148 405 230 675 18 58 72 258 79 290 3
14 19 84 35 155 16 72 32 142 35 157 2 15 11 63 20 105 13 69 21 110 31 178 2
11 6 34 9 50 3 17 13 82 21 145 8 63 17 131 20 150 5 34 7 60 20 190 3 36 8
82 10 103 25 219 25 1005 0 1242 -2 22 -6 67 -10 100 -3 33 -7 80 -10 105 -5
43 -7 63 -20 175 -3 28 -8 60 -11 73 -2 12 -7 44 -10 70 -5 39 -23 142 -69
397 -3 17 -22 100 -42 185 -112 488 -274 969 -480 1429 -9 20 -60 126 -114
236 -90 183 -122 245 -196 375 -14 25 -37 65 -51 90 -44 79 -152 250 -255 405
l-99 149 0 978 0 978 -46 1 c-26 1 -477 2 -1003 3 l-955 1 -105 68 c-57 37
-109 71 -114 75 -6 5 -15 11 -20 13 -6 2 -60 34 -122 71 -404 242 -874 465
-1308 619 -49 17 -99 35 -110 40 -46 20 -444 141 -541 164 -10 3 -73 18 -139
35 -66 16 -135 32 -154 35 -18 3 -36 7 -40 9 -3 2 -24 7 -46 10 -22 4 -47 8
-55 11 -17 5 -59 13 -110 21 -19 3 -42 7 -50 9 -8 3 -33 7 -55 10 -22 3 -51 8
-65 11 -13 3 -40 7 -60 10 -19 2 -46 6 -60 9 -14 3 -47 7 -75 10 -27 3 -61 8
-75 10 -14 2 -50 6 -80 10 -30 3 -71 8 -90 10 -19 2 -71 7 -115 11 -44 3 -96
8 -116 9 -117 12 -308 18 -562 19 -159 1 -289 0 -290 -1z"/>
</g>
</svg>
